Coordinates
version=1
nRows=10
nColumns=28
inDegrees=yes

Units are S.I. units (second, meters, Newtons, ...)
If the header above contains a line with 'inDegrees', this indicates whether rotational values are in degrees (yes) or radians (no).

endheader
time	pelvis_tilt	pelvis_list	pelvis_rotation	pelvis_tx	pelvis_ty	pelvis_tz	hip_flexion_r	hip_adduction_r	hip_rotation_r	knee_angle_r	knee_rotation_r	knee_adduction_r	ankle_angle_r	subtalar_angle_r	mtp_angle_r	hip_flexion_l	hip_adduction_l	hip_rotation_l	knee_angle_l	knee_rotation_l	knee_adduction_l	ankle_angle_l	subtalar_angle_l	mtp_angle_l	lumbar_extension	lumbar_bending	lumbar_rotation
      0.57000000	     13.33193010	      8.38995826	    -85.72478582	     -0.18973390	      0.95227415	     -0.22970391	     34.12731175	    -15.64445940	     10.96658431	     -7.61120215	    -21.98760094	      0.59731372	      4.84012507	     -2.40036829	      0.01732729	      5.38400798	     14.08975467	      5.34284319	    -18.15077727	     12.01474202	     -4.39074240	     26.58270079	      4.48735159	     -3.78983626	      0.00000000	      0.00000000	      0.00000000
      0.58000000	     13.30469358	      8.87514609	    -85.48209489	     -0.19085835	      0.95012015	     -0.21773978	     33.53442689	    -15.31274209	     10.62127707	     -3.36154946	    -22.52089906	     -0.94405046	      4.67497180	     -2.49164065	      0.07747879	      5.23488913	     13.78644240	      5.27455813	    -18.51995950	     11.71828840	     -4.67697720	     27.20346341	      4.63941394	     -3.86543303	      0.00000000	      0.00000000	      0.00000000
      0.59000000	     13.01451639	      9.10039074	    -84.93692613	     -0.19104945	      0.94846961	     -0.20563732	     32.59892071	    -15.11861438	      9.86808469	      0.33810166	    -23.01557062	     -1.81568690	      4.35859934	     -3.76561864	     -0.11302605	      4.74410322	     13.36393122	      5.77668344	    -18.76844261	     11.88182869	     -4.75742363	     27.70025036	      5.12845958	     -4.03587247	      0.00000000	      0.00000000	      0.00000000
      0.60000000	     12.87039333	      9.28312692	    -84.44873985	     -0.19084244	      0.94680574	     -0.19365497	     32.14726913	    -15.16594994	      9.50411995	      2.76001521	    -24.20703093	     -2.23097860	      4.28698581	     -4.11326322	     -0.86297233	      4.29100249	     13.12052003	      6.15306617	    -19.14005093	     11.98937450	     -4.81725497	     28.07884237	      5.75252023	     -4.23979409	      0.00000000	      0.00000000	      0.00000000
      0.61000000	     12.89315966	      9.51696615	    -84.24489399	     -0.19114755	      0.94491862	     -0.18167571	     32.29698458	    -15.20286663	     10.27329389	      3.83321291	    -26.22702238	     -2.56390706	      4.83388527	     -3.35986435	     -1.50951145	      3.91716893	     13.04857276	      6.31953032	    -19.54237639	     11.70989401	     -4.85945502	     28.25751570	      5.45731408	     -4.42937024	      0.00000000	      0.00000000	      0.00000000
      0.62000000	     12.80978838	      9.71673780	    -83.71634414	     -0.19111605	      0.94302558	     -0.16988817	     32.59782958	    -15.29403085	     11.08218494	      3.92954642	    -28.19508599	     -2.76311366	      5.25119972	     -2.55490420	     -1.69800153	      3.59893746	     12.90762494	      6.82199757	    -20.09557051	     11.76174057	     -4.79391107	     28.66585838	      5.84005786	     -4.55779913	      0.00000000	      0.00000000	      0.00000000
      0.63000000	     12.97795820	      9.94399396	    -83.37142786	     -0.19179646	      0.94094188	     -0.15777033	     33.38768577	    -15.43827492	     12.35424758	      2.72521756	    -29.80216921	     -2.84307797	      6.03616278	     -1.24509572	     -1.49310652	      3.38588203	     12.90082245	      6.95475142	    -20.85750624	     11.49068905	     -4.81279247	     28.66497979	      6.29906054	     -4.71939766	      0.00000000	      0.00000000	      0.00000000
      0.64000000	     13.08408074	      9.88472439	    -82.91199204	     -0.19218849	      0.93929480	     -0.14546721	     33.97656618	    -15.71290044	     13.32735637	      0.54829301	    -30.15362878	     -2.20302959	      6.63585939	     -1.73051407	     -1.29254696	      2.76392625	     12.86590122	      7.68036519	    -21.41834433	     11.52451333	     -4.84240145	     28.77907787	      6.38487069	     -4.75761186	      0.00000000	      0.00000000	      0.00000000
      0.65000000	     13.21247612	     10.08703961	    -82.32154439	     -0.19279170	      0.93738688	     -0.13293577	     34.98472670	    -16.14963958	     13.84462830	     -2.45946970	    -29.71528234	     -1.08530989	      7.29183434	     -2.68040750	     -1.10462560	      2.52897473	     12.73950580	      8.15546390	    -22.20477944	     11.03783899	     -5.04022106	     28.60320512	      6.12130467	     -4.73974125	      0.00000000	      0.00000000	      0.00000000
      0.66000000	     13.09296338	      9.95830857	    -81.81751225	     -0.19326331	      0.93591235	     -0.11984617	     35.52362106	    -16.42974904	     13.78863303	     -5.66194648	    -28.56461051	      0.42025888	      7.93485468	     -3.77280423	     -1.11740646	      1.92508420	     12.40811584	      8.99272456	    -22.98964923	     11.06130887	     -5.18268051	     28.55717985	      6.23136438	     -4.80643092	      0.00000000	      0.00000000	      0.00000000
